<svg width="34" height="25" viewBox="0 0 34 25" fill="none" xmlns="http://www.w3.org/2000/svg">
<path d="M28.2002 2.4674C26.064 1.52842 23.7799 0.845971 21.392 0.457428C21.0986 0.955561 20.7561 1.62555 20.5199 2.15855C17.9814 1.7999 15.4663 1.7999 12.9746 2.15855C12.7384 1.62555 12.3879 0.955561 12.0921 0.457428C9.7016 0.845971 7.41491 1.53091 5.27877 2.47238C0.970138 8.58944 -0.197863 14.5546 0.386138 20.435C3.24385 22.44 6.01331 23.6579 8.73604 24.4549C9.4083 23.5857 10.0079 22.6617 10.5244 21.6878C9.54068 21.3366 8.59849 20.9033 7.7082 20.4001C7.9444 20.2358 8.17541 20.0639 8.39863 19.8871C13.8286 22.2731 19.7282 22.2731 25.0933 19.8871C25.319 20.0639 25.5501 20.2358 25.7837 20.4001C24.8908 20.9057 23.946 21.3391 22.9623 21.6903C23.4788 22.6617 24.0758 23.5882 24.7506 24.4574C27.4759 23.6604 30.248 22.4425 33.1057 20.435C33.791 13.6181 31.9351 7.70774 28.2002 2.4674ZM11.2641 16.8186C9.63412 16.8186 8.2974 15.3889 8.2974 13.648C8.2974 11.907 9.60556 10.4749 11.2641 10.4749C12.9227 10.4749 14.2594 11.9045 14.2308 13.648C14.2335 15.3889 12.9227 16.8186 11.2641 16.8186ZM22.2278 16.8186C20.5978 16.8186 19.261 15.3889 19.261 13.648C19.261 11.907 20.5692 10.4749 22.2278 10.4749C23.8863 10.4749 25.2231 11.9045 25.1945 13.648C25.1945 15.3889 23.8863 16.8186 22.2278 16.8186Z" fill="currentColor"/>
</svg>
