<svg height="448pt" viewBox="0 0 448 448" width="448pt" xmlns="http://www.w3.org/2000/svg"><path d="m224 0c-123.710938 0-224 100.289062-224 224s100.289062 224 224 224 224-100.289062 224-224c-.140625-123.652344-100.347656-223.859375-224-224zm96 312h-192c-4.417969 0-8-3.582031-8-8s3.582031-8 8-8h192c4.417969 0 8 3.582031 8 8s-3.582031 8-8 8zm0-80h-192c-4.417969 0-8-3.582031-8-8s3.582031-8 8-8h192c4.417969 0 8 3.582031 8 8s-3.582031 8-8 8zm0-80h-192c-4.417969 0-8-3.582031-8-8s3.582031-8 8-8h192c4.417969 0 8 3.582031 8 8s-3.582031 8-8 8zm0 0"/></svg>