<svg width="30" height="25" viewBox="0 0 30 25" fill="none" xmlns="http://www.w3.org/2000/svg">
<path d="M9.59945 24.4574C6.2238 24.4574 3.07712 23.4756 0.428589 21.7815C2.67728 21.9271 6.6457 21.5786 9.11406 19.2242C5.40084 19.0538 3.72625 16.2059 3.50783 14.9889C3.82333 15.1106 5.32803 15.2566 6.17746 14.9158C1.90605 13.8449 1.25077 10.0964 1.39639 8.95236C2.19728 9.51219 3.55637 9.70692 4.09029 9.65824C0.110112 6.81037 1.54201 2.52639 2.24582 1.60144C5.10214 5.55864 9.38289 7.78115 14.6787 7.90478C14.5789 7.46684 14.5261 7.01091 14.5261 6.54262C14.5261 3.18186 17.2426 0.457428 20.5935 0.457428C22.3443 0.457428 23.9219 1.20117 25.0293 2.39082C26.1993 2.11667 27.96 1.47489 28.8208 0.919903C28.3869 2.47771 27.0362 3.77724 26.2191 4.2589C26.2259 4.27528 26.2124 4.24244 26.2191 4.2589C26.9368 4.15033 28.8788 3.77712 29.646 3.25662C29.2666 4.13178 27.8345 5.58688 26.6592 6.40152C26.8779 16.045 19.4997 24.4574 9.59945 24.4574Z" fill="currentColor"/>
</svg>
