<svg width="35" height="25" viewBox="0 0 35 25" fill="none" xmlns="http://www.w3.org/2000/svg">
<path fill-rule="evenodd" clip-rule="evenodd" d="M5.37935 0.833563C3.00273 0.951307 1.09364 2.81223 0.939403 5.18676C0.791633 7.46174 0.645996 10.261 0.645996 12.4574C0.645996 14.6538 0.791633 17.4531 0.939403 19.7281C1.09364 22.1026 3.00273 23.9635 5.37935 24.0813C8.82086 24.2518 13.7398 24.4574 17.446 24.4574C21.1522 24.4574 26.0711 24.2518 29.5126 24.0813C31.8893 23.9635 33.7983 22.1026 33.9526 19.7281C34.1004 17.4531 34.246 14.6538 34.246 12.4574C34.246 10.261 34.1004 7.46174 33.9526 5.18676C33.7983 2.81223 31.8893 0.951307 29.5126 0.833563C26.0711 0.663062 21.1522 0.457428 17.446 0.457428C13.7398 0.457428 8.82086 0.663062 5.37935 0.833563ZM23.446 12.4574L13.846 17.2574V7.65743L23.446 12.4574Z" fill="currentColor"/>
</svg>
