<svg width="67" height="56" viewBox="0 0 67 56" fill="none" xmlns="http://www.w3.org/2000/svg">
<path d="M0.000123629 13.9586C0.000123629 6.24971 6.24941 0 13.9583 0C21.6672 0 27.9165 6.24971 27.9165 13.9586C27.9165 21.6675 21.6672 27.9172 13.9583 27.9172C6.24941 27.9172 0.000123629 21.6675 0.000123629 13.9586Z" fill="white"/>
<path d="M33.5 2.79222C33.5 1.25012 34.7502 0 36.2923 0H64.2078C65.7499 0 67 1.25012 67 2.79222C67 4.33432 65.7499 5.58444 64.2078 5.58444H36.2922C34.7501 5.58444 33.5 4.33432 33.5 2.79222Z" fill="white"/>
<path d="M33.5 13.958C33.5 12.4164 34.7498 11.1667 36.2914 11.1667H64.2086C65.7502 11.1667 67 12.4164 67 13.958C67 15.4997 65.7502 16.7494 64.2086 16.7494H36.2914C34.7498 16.7494 33.5 15.4997 33.5 13.958Z" fill="white"/>
<path d="M33.5 25.1246C33.5 23.5828 34.75 22.3328 36.2918 22.3328H53.0418C54.5837 22.3328 55.8336 23.5828 55.8336 25.1246C55.8336 26.6665 54.5837 27.9164 53.0418 27.9164H36.2918C34.75 27.9164 33.5 26.6665 33.5 25.1246Z" fill="white"/>
<path d="M31.1876 33.501L16.75 47.9378V33.501H0V39.0837H11.1664V55.8337H16.75L33.4999 39.0837H66.9999V33.501H31.1876Z" fill="white"/>
</svg>
