<svg width="81" height="56" viewBox="0 0 81 56" fill="none" xmlns="http://www.w3.org/2000/svg">
<path d="M17.8458 44.4923C35.4613 51.3668 50.4521 52.7059 67.4398 42.0054C67.3153 42.1922 63.955 47.1705 55.1182 49.7219C56.9851 52.2734 59.5366 55.1981 59.5366 55.1981C65.1996 55.1981 70.7381 53.5801 75.5297 50.4686C79.2635 47.9793 81.3793 43.6855 80.9436 39.205C80.1969 31.5507 78.3921 24.0831 75.5919 16.9268C72.0448 7.5923 63.5193 1.1203 53.6247 0.186778C52.7535 0.124519 52.1313 0.124519 51.7579 0.124519L50.7623 1.12011C62.1504 4.35612 67.8134 9.39671 67.9377 9.58349C50.451 0.74674 29.7907 0.622407 12.1795 9.21012C12.1795 9.21012 17.7802 3.67163 30.1639 0.746742L29.4172 0C28.1103 0 26.8656 0.124518 25.5589 0.311111C16.4111 1.86685 8.75688 8.15208 5.45862 16.8021C2.59599 24.2697 0.729134 32.1106 0.0446521 40.0761C-0.328719 44.3077 1.66265 48.4772 5.14751 50.9042C9.75248 53.9535 15.2287 55.5715 20.7672 55.5715C20.7672 55.5715 23.0074 52.6466 25.2478 50.033C16.8467 47.5437 13.4241 42.5654 13.3619 42.3786L14.9429 43.1859C15.8881 43.6689 16.8571 44.1063 17.8458 44.4923ZM27.6126 39.0805C23.5676 38.956 20.3938 35.5334 20.5183 31.4261C20.6429 27.5679 23.7543 24.4564 27.6126 24.3319C31.6576 24.4564 34.8313 27.879 34.7068 31.9863C34.52 35.8447 31.4708 38.9562 27.6126 39.0805ZM53.0023 39.0805C48.9573 38.956 45.7836 35.5334 45.9081 31.4261C46.0326 27.5679 49.1441 24.4564 53.0023 24.3319C57.0473 24.4564 60.2211 27.879 60.0966 31.9863C59.9722 35.8447 56.8606 38.9562 53.0023 39.0805Z" fill="white"/>
</svg>
