<svg width="120" height="120" viewBox="0 0 120 120" fill="none" xmlns="http://www.w3.org/2000/svg">
<path d="M30 78.75C27.0173 78.7533 24.1577 79.9396 22.0487 82.0487C19.9396 84.1577 18.7533 87.0173 18.75 90V101.25C18.75 104.234 19.9353 107.095 22.045 109.205C24.1548 111.315 27.0163 112.5 30 112.5C32.9837 112.5 35.8452 111.315 37.955 109.205C40.0647 107.095 41.25 104.234 41.25 101.25V90C41.2467 87.0173 40.0604 84.1577 37.9513 82.0487C35.8423 79.9396 32.9827 78.7533 30 78.75Z" fill="url(#paint0_linear_20_197)"/>
<path d="M60 60C57.0173 60.0033 54.1577 61.1896 52.0487 63.2987C49.9396 65.4077 48.7533 68.2673 48.75 71.25V101.25C48.75 104.234 49.9353 107.095 52.045 109.205C54.1548 111.315 57.0163 112.5 60 112.5C62.9837 112.5 65.8452 111.315 67.955 109.205C70.0647 107.095 71.25 104.234 71.25 101.25V71.25C71.2467 68.2673 70.0604 65.4077 67.9513 63.2987C65.8423 61.1896 62.9827 60.0033 60 60Z" fill="url(#paint1_linear_20_197)"/>
<path d="M90 41.25C87.0173 41.2533 84.1577 42.4396 82.0487 44.5487C79.9396 46.6577 78.7533 49.5173 78.75 52.5V101.25C78.75 104.234 79.9353 107.095 82.045 109.205C84.1548 111.315 87.0163 112.5 90 112.5C92.9837 112.5 95.8452 111.315 97.955 109.205C100.065 107.095 101.25 104.234 101.25 101.25V52.5C101.247 49.5173 100.06 46.6577 97.9513 44.5487C95.8423 42.4396 92.9827 41.2533 90 41.25Z" fill="url(#paint2_linear_20_197)"/>
<path d="M97.5 11.25H82.5C81.5054 11.25 80.5516 11.6451 79.8484 12.3483C79.1451 13.0516 78.75 14.0054 78.75 15C78.75 15.9946 79.1451 16.9484 79.8484 17.6516C80.5516 18.3549 81.5054 18.75 82.5 18.75H88.7558C80.4098 27.2754 71.3168 35.0359 61.5859 41.9385C47.9127 51.5986 33.0788 59.5006 17.4334 65.4585C16.5039 65.8125 15.7531 66.5213 15.3462 67.4288C14.9393 68.3364 14.9096 69.3684 15.2636 70.2979C15.6176 71.2273 16.3264 71.9781 17.2339 72.385C18.1415 72.7919 19.1735 72.8216 20.103 72.4676C36.3369 66.2865 51.7282 58.0867 65.9141 48.0615C75.8727 41.0018 85.1876 33.0754 93.75 24.375V30C93.75 30.9946 94.1451 31.9484 94.8484 32.6516C95.5516 33.3549 96.5054 33.75 97.5 33.75C98.4946 33.75 99.4484 33.3549 100.152 32.6516C100.855 31.9484 101.25 30.9946 101.25 30V15C101.218 14.0155 100.813 13.0801 100.116 12.3836C99.42 11.6871 98.4845 11.2818 97.5 11.25Z" fill="url(#paint3_linear_20_197)"/>
<defs>
<linearGradient id="paint0_linear_20_197" x1="18.75" y1="95.625" x2="43.1014" y2="95.625" gradientUnits="userSpaceOnUse">
<stop stop-color="#30BDDC"/>
<stop offset="1" stop-color="#5189E1"/>
</linearGradient>
<linearGradient id="paint1_linear_20_197" x1="48.75" y1="86.25" x2="73.1014" y2="86.25" gradientUnits="userSpaceOnUse">
<stop stop-color="#30BDDC"/>
<stop offset="1" stop-color="#5189E1"/>
</linearGradient>
<linearGradient id="paint2_linear_20_197" x1="78.75" y1="76.875" x2="103.101" y2="76.875" gradientUnits="userSpaceOnUse">
<stop stop-color="#30BDDC"/>
<stop offset="1" stop-color="#5189E1"/>
</linearGradient>
<linearGradient id="paint3_linear_20_197" x1="15.018" y1="41.9816" x2="108.346" y2="41.9816" gradientUnits="userSpaceOnUse">
<stop stop-color="#30BDDC"/>
<stop offset="1" stop-color="#5189E1"/>
</linearGradient>
</defs>
</svg>
